<svg width="19" height="19" viewBox="0 0 19 19" fill="none" xmlns="http://www.w3.org/2000/svg">
<path d="M17.58 4.06C17.25 2.37 16.04 1.04 14.49 0.66C13.24 0.36 11.28 0 9.01 0C6.74 0 4.78 0.36 3.53 0.66C1.99 1.03 0.78 2.37 0.44 4.06C0.15 5.55 0 7.21 0 9.01C0 10.81 0.15 12.47 0.44 13.96C0.77 15.65 1.98 16.98 3.53 17.36C4.78 17.66 6.74 18.02 9.01 18.02C11.28 18.02 13.24 17.66 14.49 17.36C16.03 16.99 17.24 15.65 17.58 13.96C17.87 12.47 18.02 10.81 18.02 9.01C18.02 7.21 17.87 5.55 17.58 4.06ZM15.62 13.57C15.44 14.5 14.81 15.22 14.03 15.41C12.89 15.68 11.09 16.01 9.02 16.01C6.95 16.01 5.15 15.68 4.01 15.41C3.23 15.22 2.6 14.5 2.42 13.58C2.15 12.22 2.02 10.68 2.02 9.02C2.02 7.36 2.15 5.82 2.42 4.46C2.6 3.53 3.23 2.81 4.01 2.62C5.15 2.35 6.95 2.02 9.02 2.02C11.09 2.02 12.89 2.35 14.03 2.62C14.81 2.81 15.44 3.53 15.62 4.45C15.89 5.81 16.02 7.35 16.02 9.01C16.02 10.67 15.89 12.21 15.62 13.57ZM13.97 8.42C13.93 8.07 13.7 7.77 13.38 7.62C13.06 7.48 12.68 7.52 12.39 7.72C12.13 7.91 11.83 8 11.52 8C10.69 8 10.02 7.33 10.02 6.5C10.02 6.19 10.12 5.89 10.3 5.63C10.51 5.34 10.55 4.97 10.4 4.64C10.26 4.32 9.95 4.09 9.6 4.05H9.49C9.33 4.01 9.17 4 9.01 4C6.25 4 4.01 6.24 4.01 9C4.01 11.76 6.25 14 9.01 14C11.77 14 14.01 11.76 14.01 9C14.01 8.83 13.99 8.68 13.97 8.52V8.41V8.42ZM9.02 12.01C7.37 12.01 6.02 10.66 6.02 9.01C6.02 7.7 6.86 6.58 8.04 6.18C8.04 6.29 8.02 6.4 8.02 6.51C8.02 8.44 9.59 10.01 11.52 10.01C11.63 10.01 11.74 10.01 11.85 9.99C11.44 11.16 10.33 12.01 9.02 12.01Z" fill="black"/>
</svg>
