<svg width="19" height="19" viewBox="0 0 19 19" fill="none"
    xmlns="http://www.w3.org/2000/svg">
    <path d="M17.58 4.06C17.25 2.37 16.04 1.04 14.49 0.66C13.24 0.36 11.28 0 9.01 0C6.74 0 4.78 0.36 3.53 0.66C1.99 1.03 0.78 2.37 0.44 4.06C0.15 5.55 0 7.21 0 9.01C0 10.81 0.15 12.47 0.44 13.96C0.77 15.65 1.98 16.98 3.53 17.36C4.78 17.66 6.74 18.02 9.01 18.02C11.28 18.02 13.24 17.66 14.49 17.36C16.03 16.99 17.24 15.65 17.58 13.96C17.87 12.47 18.02 10.81 18.02 9.01C18.02 7.21 17.87 5.55 17.58 4.06ZM15.62 13.57C15.44 14.5 14.81 15.22 14.03 15.41C12.89 15.68 11.09 16.01 9.02 16.01C6.95 16.01 5.15 15.68 4.01 15.41C3.23 15.22 2.6 14.5 2.42 13.58C2.15 12.22 2.02 10.68 2.02 9.02C2.02 7.36 2.15 5.82 2.42 4.46C2.6 3.53 3.23 2.81 4.01 2.62C5.15 2.35 6.95 2.02 9.02 2.02C11.09 2.02 12.89 2.35 14.03 2.62C14.81 2.81 15.44 3.53 15.62 4.45C15.89 5.81 16.02 7.35 16.02 9.01C16.02 10.67 15.89 12.21 15.62 13.57ZM14.02 8.01H12.88C12.79 7.65 12.64 7.31 12.46 6.99L13.27 6.18C13.66 5.79 13.66 5.16 13.27 4.77C12.88 4.38 12.25 4.38 11.86 4.77L11.05 5.58C10.73 5.39 10.39 5.25 10.03 5.16V4.02C10.03 3.47 9.58 3.02 9.03 3.02C8.48 3.02 8.03 3.47 8.03 4.02V5.16C7.67 5.25 7.33 5.4 7.01 5.58L6.2 4.77C5.81 4.38 5.18 4.38 4.79 4.77C4.4 5.16 4.4 5.79 4.79 6.18L5.6 6.99C5.41 7.31 5.27 7.65 5.18 8.01H4.04C3.49 8.01 3.04 8.46 3.04 9.01C3.04 9.56 3.49 10.01 4.04 10.01H5.18C5.27 10.37 5.42 10.71 5.6 11.03L4.79 11.84C4.4 12.23 4.4 12.86 4.79 13.25C4.99 13.45 5.24 13.54 5.5 13.54C5.76 13.54 6.01 13.44 6.21 13.25L7.02 12.44C7.34 12.63 7.68 12.77 8.04 12.86V14C8.04 14.55 8.49 15 9.04 15C9.59 15 10.04 14.55 10.04 14V12.86C10.4 12.77 10.74 12.62 11.06 12.44L11.87 13.25C12.07 13.45 12.32 13.54 12.58 13.54C12.84 13.54 13.09 13.44 13.29 13.25C13.68 12.86 13.68 12.23 13.29 11.84L12.48 11.03C12.67 10.71 12.81 10.37 12.9 10.01H14.04C14.59 10.01 15.04 9.56 15.04 9.01C15.04 8.46 14.59 8.01 14.04 8.01H14.02ZM9.02 11.01C7.92 11.01 7.02 10.11 7.02 9.01C7.02 7.91 7.92 7.01 9.02 7.01C10.12 7.01 11.02 7.91 11.02 9.01C11.02 10.11 10.12 11.01 9.02 11.01Z" fill="white"/>
</svg>
