<svg width="62" height="62" viewBox="0 0 62 62" fill="none" xmlns="http://www.w3.org/2000/svg">
<path d="M1 30.3009C1 46.8399 14.461 60.3009 31 60.3009C44.66 60.3009 56.602 51.0626 60.039 37.8399C60.2109 37.2501 60.289 36.6915 60.289 36.1094C60.289 32.8711 57.6601 30.1797 54.4179 30.1094H54.2773H53.9687C53.3906 30.1407 52.8203 30.25 52.2695 30.4493C50.539 31.0079 48.7695 31.2891 47 31.2891C37.6289 31.2891 30 23.6602 30 14.2891C30 12.461 30.3008 10.6485 30.8789 8.9102C31.5781 6.8321 31.0781 4.5391 29.5977 2.9297C28.4688 1.6992 26.8594 1 25.1875 1C24.6992 1 24.207 1.05859 23.7383 1.17969C10.3473 4.51949 1.0003 16.4887 1.0003 30.2887L1 30.3009ZM24.699 5.08192C25.4099 4.90223 26.1678 5.14051 26.6482 5.66004C27.1482 6.1991 27.3084 6.96084 27.0779 7.64834C26.3591 9.79674 25.9881 12.0389 25.9881 14.2967C25.9881 25.8747 35.41 35.2967 46.9881 35.2967C49.1795 35.2967 51.3592 34.9452 53.4686 34.2655L53.5975 34.2148C53.7772 34.1562 53.9686 34.1132 54.1561 34.1054H54.2655C55.3866 34.1444 56.2655 35.0663 56.2655 36.1054C56.2655 36.3046 56.2342 36.496 56.1756 36.6952L56.1366 36.8241C53.1678 48.2851 42.8166 56.2931 30.9766 56.2931C16.6366 56.2931 4.97656 44.6331 4.97656 30.2931C4.97656 18.3321 13.0782 7.96513 24.6756 5.06313L24.699 5.08192Z" fill="black" stroke="black" stroke-width="2"/>
</svg>
