<svg width="91" height="91" viewBox="0 0 91 91" fill="none"
    xmlns="http://www.w3.org/2000/svg">
    <path d="M88.778 20.5028C87.1115 11.9684 81.0011 5.25194 73.1737 3.33296C66.8613 1.81798 56.9634 0 45.5 0C34.0366 0 24.1387 1.81798 17.8263 3.33296C10.0494 5.20144 3.93896 11.9684 2.22198 20.5028C0.757491 28.0272 0 36.4101 0 45.5C0 54.5899 0.757491 62.9728 2.22198 70.4972C3.88846 79.0316 9.99889 85.7481 17.8263 87.667C24.1387 89.182 34.0366 91 45.5 91C56.9634 91 66.8613 89.182 73.1737 87.667C80.9506 85.7986 87.061 79.0316 88.778 70.4972C90.2425 62.9728 91 54.5899 91 45.5C91 36.4101 90.2425 28.0272 88.778 20.5028ZM78.8801 68.5277C77.9711 73.2242 74.7897 76.8602 70.8507 77.8196C65.0938 79.1831 56.0039 80.8496 45.5505 80.8496C35.0971 80.8496 26.0072 79.1831 20.2503 77.8196C16.3113 76.8602 13.1299 73.2242 12.2209 68.5782C10.8574 61.7103 10.2009 53.9334 10.2009 45.5505C10.2009 37.1676 10.8574 29.3907 12.2209 22.5228C13.1299 17.8263 16.3113 14.1903 20.2503 13.2309C26.0072 11.8674 35.0971 10.2009 45.5505 10.2009C56.0039 10.2009 65.0938 11.8674 70.8507 13.2309C74.7897 14.1903 77.9711 17.8263 78.8801 22.4723C80.2436 29.3402 80.9001 37.1171 80.9001 45.5C80.9001 53.8829 80.2436 61.6598 78.8801 68.5277Z" fill="white"/>
    <path d="M56.6384 57.6382L56.6382 57.6384C55.7537 58.5235 55.7536 59.9593 56.6383 60.8441L60.3861 64.5918C61.2708 65.4765 62.7071 65.4765 63.5918 64.5918C64.4765 63.7071 64.4765 62.2708 63.5918 61.3861L59.8441 57.6383C58.9593 56.7536 57.5235 56.7537 56.6384 57.6382ZM25.4078 64.5918L25.4079 64.5919C26.2929 65.4764 27.7288 65.4766 28.6135 64.5918L32.3612 60.8441C33.246 59.9593 33.2458 58.5235 32.3613 57.6384L32.3612 57.6383C31.4766 56.7536 30.0402 56.7536 29.1555 57.6383L25.4078 61.3861C24.5231 62.2708 24.5231 63.7071 25.4078 64.5918ZM56.6383 33.3612L56.6384 33.3613C57.5235 34.2458 58.9593 34.246 59.8441 33.3612L63.5918 29.6135C64.4766 28.7288 64.4764 27.2929 63.5919 26.4079L63.5918 26.4078C62.7071 25.5231 61.2708 25.5231 60.3861 26.4078L56.6383 30.1555C55.7536 31.0402 55.7536 32.4766 56.6383 33.3612ZM25.4079 26.4077L25.4077 26.4079C24.5232 27.2929 24.523 28.7288 25.4078 29.6135L29.1555 33.3612C30.0402 34.2459 31.4766 34.2459 32.3612 33.3612C33.2459 32.4766 33.2459 31.0402 32.3612 30.1555L28.6135 26.4078C27.7288 25.523 26.2929 25.5232 25.4079 26.4077ZM42.2332 64.9332V70.2332C42.2332 71.4845 43.2487 72.5 44.5 72.5C45.751 72.5 46.7664 71.4845 46.7664 70.2332V64.9332C46.7664 63.6819 45.751 62.6664 44.5 62.6664C43.2487 62.6664 42.2332 63.6818 42.2332 64.9332ZM44.5 30.8664C36.4231 30.8664 29.8664 37.4231 29.8664 45.5C29.8664 53.5765 36.4231 60.1332 44.5 60.1332C52.5765 60.1332 59.1332 53.5765 59.1332 45.5C59.1332 37.4231 52.5765 30.8664 44.5 30.8664ZM44.5 35.4C50.0742 35.4 54.6 39.9258 54.6 45.5C54.6 51.0742 50.0742 55.6 44.5 55.6C38.9258 55.6 34.4 51.0742 34.4 45.5C34.4 39.9258 38.9258 35.4 44.5 35.4ZM69.2332 43.2332H63.9332C62.6818 43.2332 61.6664 44.2487 61.6664 45.5C61.6664 46.751 62.6819 47.7664 63.9332 47.7664H69.2332C70.4845 47.7664 71.5 46.751 71.5 45.5C71.5 44.2487 70.4845 43.2332 69.2332 43.2332ZM25.0664 43.2332H19.7664C18.5154 43.2332 17.5 44.2487 17.5 45.5C17.5 46.7509 18.5155 47.7664 19.7664 47.7664H25.0664C26.3176 47.7664 27.3332 46.751 27.3332 45.5C27.3332 44.2487 26.3177 43.2332 25.0664 43.2332ZM42.2332 20.7664V26.0664C42.2332 27.3177 43.2487 28.3332 44.5 28.3332C45.751 28.3332 46.7664 27.3176 46.7664 26.0664V20.7664C46.7664 19.5155 45.7509 18.5 44.5 18.5C43.2487 18.5 42.2332 19.5154 42.2332 20.7664Z" fill="white" stroke="white"/>
</svg>
