<svg width="56" height="56" viewBox="0 0 56 56" fill="none" xmlns="http://www.w3.org/2000/svg">
<path d="M40.1384 40.1382C39.2539 41.0233 39.2536 42.4593 40.1383 43.3441L43.8861 47.0918C44.7708 47.9765 46.2071 47.9765 47.0918 47.0918C47.9765 46.2071 47.9765 44.7708 47.0918 43.8861L43.3441 40.1383C42.4593 39.2536 41.0235 39.2537 40.1384 40.1382ZM8.9078 47.0918C9.7928 47.9763 11.2288 47.9766 12.1135 47.0918L15.8612 43.3441C16.746 42.4593 16.7458 41.0235 15.8613 40.1384C14.9767 39.2537 13.5402 39.2536 12.6555 40.1383L8.9078 43.8861C8.0231 44.7708 8.0231 46.2071 8.9078 47.0918ZM40.1383 15.8612C41.0234 16.7457 42.4593 16.746 43.3441 15.8612L47.0918 12.1135C47.9766 11.2288 47.9764 9.7929 47.0919 8.9079C46.2072 8.0232 44.7708 8.0231 43.8861 8.9078L40.1383 12.6555C39.2536 13.5402 39.2536 14.9766 40.1383 15.8612ZM8.9079 8.9077C8.0234 9.7927 8.023 11.2288 8.9078 12.1135L12.6555 15.8612C13.5402 16.7459 14.9766 16.7459 15.8612 15.8612C16.7459 14.9766 16.7459 13.5402 15.8612 12.6555L12.1135 8.9078C11.2288 8.023 9.7929 8.0232 8.9079 8.9077ZM25.7332 47.4332V52.7332C25.7332 53.9845 26.7487 55 28 55C29.251 55 30.2664 53.9845 30.2664 52.7332V47.4332C30.2664 46.1819 29.251 45.1664 28 45.1664C26.7487 45.1664 25.7332 46.1818 25.7332 47.4332ZM28 13.3664C19.9231 13.3664 13.3664 19.9231 13.3664 28C13.3664 36.0765 19.9231 42.6332 28 42.6332C36.0765 42.6332 42.6332 36.0765 42.6332 28C42.6332 19.9231 36.0765 13.3664 28 13.3664ZM28 17.9C33.5742 17.9 38.1 22.4258 38.1 28C38.1 33.5742 33.5742 38.1 28 38.1C22.4258 38.1 17.9 33.5742 17.9 28C17.9 22.4258 22.4258 17.9 28 17.9ZM52.7332 25.7332H47.4332C46.1818 25.7332 45.1664 26.7487 45.1664 28C45.1664 29.251 46.1819 30.2664 47.4332 30.2664H52.7332C53.9845 30.2664 55 29.251 55 28C55 26.7487 53.9845 25.7332 52.7332 25.7332ZM8.5664 25.7332H3.2664C2.0154 25.7332 1 26.7487 1 28C1 29.2509 2.0155 30.2664 3.2664 30.2664H8.5664C9.8176 30.2664 10.8332 29.251 10.8332 28C10.8332 26.7487 9.8177 25.7332 8.5664 25.7332ZM25.7332 3.2664V8.5664C25.7332 9.8177 26.7487 10.8332 28 10.8332C29.251 10.8332 30.2664 9.8176 30.2664 8.5664V3.2664C30.2664 2.0155 29.2509 1 28 1C26.7487 1 25.7332 2.0154 25.7332 3.2664Z" fill="white" stroke="white"/>
</svg>
